PathFileType	4	(X/Y/Z)	./resultDataOpenSim/trcMotMarkerGrf/sub09/qtm-13-02.trc
DataRate	CameraRate	NumFrames	NumMarkers	Units	OrigDataRate	OrigDataStartFrame	OrigNumFrames
250.000000	250.000000	7	24	m	250.000000	131	523
Frame#	Time	L.Toe.Tip			R.Toe.Tip			L.Ankle.Lat			R.Ankle.Lat			L.Ankle.Med			R.Ankle.Med			L.Heel			R.Heel			L.Knee.Lat			R.Knee.Lat			L.Knee.Med			R.Knee.Med			L.Thigh.Upper			R.Thigh.Upper			L.ASIS			R.ASIS			V.Sacral			L.Acromium			R.Acromium			C7			L.Elbow			R.Elbow			L.Wrist.Lat			R.Wrist.Lat
		X1	Y1	Z1	X2	Y2	Z2	X3	Y3	Z3	X4	Y4	Z4	X5	Y5	Z5	X6	Y6	Z6	X7	Y7	Z7	X8	Y8	Z8	X9	Y9	Z9	X10	Y10	Z10	X11	Y11	Z11	X12	Y12	Z12	X13	Y13	Z13	X14	Y14	Z14	X15	Y15	Z15	X16	Y16	Z16	X17	Y17	Z17	X18	Y18	Z18	X19	Y19	Z19	X20	Y20	Z20	X21	Y21	Z21	X22	Y22	Z22	X23	Y23	Z23	X24	Y24	Z24

131	0.52	-0.20068478	0.0872757	-0.036653689	-0.63979646	0.03846084	0.063154885	-0.35467861	0.094670622	-0.073912996	-0.78906978	0.057604241	0.081979356	-0.33096328	0.11189465	0.0225551	-0.76560726	0.093180331	-0.0073558853	-0.4110217	0.041569628	-0.021134325	-0.8533308	0.034837914	0.026749843	-0.40343685	0.51051279	-0.10081665	-0.65428685	0.49261675	0.15953472	-0.40999631	0.50294509	0.024755156	-0.66487124	0.48651246	0.030202483	-0.58901244	0.88593051	-0.14738619	-0.6465664	0.89867304	0.2221471	-0.52391721	0.9731045	-0.080599193	-0.53758026	0.98263128	0.15964295	-0.69643575	1.031897	0.020683222	-0.53803841	1.4246159	-0.14837884	-0.55488428	1.4476427	0.17964424	-0.60820474	1.485007	0.013032272	-0.70939293	1.1001921	-0.2041258	-0.6837998	1.1115571	0.28648263	-0.59383894	0.86421991	-0.2417425	-0.5226719	0.88891921	0.29169353
132	0.524	-0.18377289	0.09004648	-0.034569934	-0.63979925	0.038477242	0.063331804	-0.3379014	0.094643989	-0.072548354	-0.78910705	0.057717172	0.081894194	-0.31489814	0.1128431	0.023825921	-0.76544275	0.093145324	-0.0074706471	-0.39328274	0.040880378	-0.019737767	-0.85329745	0.034952704	0.026458541	-0.39723063	0.50898371	-0.10113974	-0.65220492	0.49217185	0.15956914	-0.40407856	0.50144246	0.024421893	-0.66271436	0.48609454	0.030273862	-0.58289179	0.88443973	-0.14712183	-0.64169709	0.89801994	0.22221923	-0.51769326	0.97168686	-0.080224969	-0.53213212	0.98176172	0.16006247	-0.68828521	1.0305385	0.018098676	-0.53246374	1.4234248	-0.14840915	-0.54952573	1.4465364	0.17961252	-0.60272917	1.4839117	0.012951579	-0.7038946	1.0992037	-0.20414755	-0.67817836	1.1103021	0.2865729	-0.58988013	0.86269907	-0.24218336	-0.51674048	0.88794795	0.29149538
133	0.528	-0.16719237	0.09306095	-0.032388234	-0.63980869	0.038486894	0.063434292	-0.3213872	0.094878507	-0.071142251	-0.78912478	0.05782847	0.081807123	-0.29911848	0.11398563	0.025154725	-0.76528542	0.093093121	-0.0076286894	-0.37581678	0.040401154	-0.018285535	-0.8532504	0.035088777	0.026157736	-0.39106567	0.50741112	-0.10149476	-0.65012479	0.49171534	0.15966093	-0.39829803	0.49985185	0.02400606	-0.66051878	0.4856831	0.030443385	-0.57676671	0.88289874	-0.14683172	-0.63676916	0.89730162	0.22227831	-0.51145295	0.9702187	-0.079865429	-0.52663704	0.98084879	0.16047618	-0.67922607	1.0289526	0.014482032	-0.52686917	1.4221836	-0.14842731	-0.54416941	1.445383	0.17957865	-0.59724607	1.4827722	0.012858861	-0.69841605	1.098153	-0.20420868	-0.67253711	1.1089926	0.28664448	-0.58587514	0.86114689	-0.24264244	-0.51080719	0.88691707	0.29129924
134	0.532	-0.15093537	0.096342419	-0.030118693	-0.63982707	0.038470449	0.063458735	-0.30515426	0.095383987	-0.069736099	-0.7891311	0.057945367	0.081717947	-0.28362636	0.11531741	0.026490954	-0.7651325	0.093018611	-0.0078491857	-0.35865119	0.04011032	-0.016776202	-0.85320061	0.035242764	0.025867139	-0.38490931	0.50578953	-0.10183368	-0.64803833	0.49125186	0.15978718	-0.39252159	0.49817789	0.023633877	-0.65826882	0.48527874	0.030697371	-0.5706289	0.88130742	-0.14650843	-0.63178168	0.89652051	0.2223176	-0.50519753	0.96870996	-0.079516059	-0.52107448	0.97989496	0.16087769	-0.67059431	1.0273175	0.011358018	-0.52124126	1.4208975	-0.14844935	-0.53882402	1.4441869	0.17954422	-0.591755	1.4815837	0.012760329	-0.69295775	1.0970482	-0.20429957	-0.66687918	1.1076326	0.28670292	-0.58182023	0.85956026	-0.24311342	-0.50487267	0.88583415	0.2911127
135	0.536	-0.13502082	0.099877727	-0.027804999	-0.63984463	0.03843291	0.063459257	-0.2892251	0.096118213	-0.068376914	-0.7891297	0.05806188	0.081625633	-0.26844038	0.11681406	0.027765051	-0.76497224	0.09293193	-0.0080961974	-0.34178966	0.039983104	-0.015288834	-0.85316034	0.035414006	0.025600452	-0.37875192	0.50412811	-0.10211348	-0.64591039	0.49077776	0.15993396	-0.38662321	0.49641162	0.023422578	-0.6558663	0.48487867	0.031016331	-0.56445367	0.87966182	-0.14616755	-0.62672883	0.89568381	0.22233089	-0.49892041	0.9671688	-0.079176755	-0.51543684	0.97889729	0.16125788	-0.66332765	1.0257832	0.0098041544	-0.51558617	1.4195667	-0.1484894	-0.53348576	1.4429508	0.17950757	-0.58625486	1.4803452	0.012662689	-0.68743059	1.095903	-0.20438164	-0.66122064	1.106229	0.28676176	-0.57770846	0.85794149	-0.24358766	-0.4989306	0.88470309	0.29094038
136	0.54	-0.11949239	0.10362217	-0.02552875	-0.63984943	0.038391944	0.063482433	-0.2736419	0.096990591	-0.067115382	-0.78911838	0.058170939	0.081525487	-0.25358267	0.11843058	0.028934156	-0.76477027	0.092864375	-0.0082865105	-0.32519976	0.039972762	-0.013968068	-0.85313205	0.035607422	0.025353734	-0.37259376	0.50244575	-0.10229744	-0.64368509	0.49029161	0.16011164	-0.38049789	0.4945587	0.023447044	-0.6531985	0.48447402	0.031366842	-0.55823252	0.87795966	-0.14583562	-0.62160048	0.89479885	0.222312	-0.4926225	0.96559515	-0.078852444	-0.50973312	0.97784858	0.16160711	-0.65724589	1.0243479	0.0096158084	-0.50990989	1.4181901	-0.14854969	-0.52814721	1.4416744	0.17946917	-0.58074314	1.4790605	0.012566283	-0.68169253	1.0947208	-0.20438888	-0.65557226	1.1047861	0.2868295	-0.57353359	0.85629301	-0.24405685	-0.4929694	0.88352287	0.29077558
137	0.544	-0.10438785	0.10751293	-0.023359611	-0.63983662	0.038355727	0.063530611	-0.25844001	0.097920733	-0.066004264	-0.78908571	0.058271968	0.081402564	-0.23907084	0.12010716	0.029987154	-0.76449434	0.092843543	-0.0083683448	-0.30884698	0.040000452	-0.012879412	-0.85310339	0.035830353	0.025109023	-0.36643072	0.50076109	-0.10236187	-0.64133569	0.48978605	0.1603203	-0.37415039	0.49266158	0.023683555	-0.65027701	0.48404427	0.031716168	-0.55198711	0.87620249	-0.14553092	-0.6163851	0.89386845	0.2222585	-0.486325	0.96398158	-0.078553018	-0.50397791	0.97674325	0.16192085	-0.65163502	1.022926	0.0099730865	-0.50421129	1.4167687	-0.14861879	-0.52279355	1.4403498	0.17942689	-0.57521775	1.4777302	0.012466964	-0.67572144	1.0934867	-0.20427049	-0.6499284	1.1033043	0.28690258	-0.56929356	0.85461474	-0.2445174	-0.48697977	0.88229167	0.29060999
